<?xml version="1.0" encoding="UTF-8" standalone="no"?>
<!-- Created with Inkscape (http://www.inkscape.org/) -->

<svg
   version="1.1"
   id="svg2"
   viewBox="0 0 444.51251 222.256"
   xml:space="preserve"
   sodipodi:docname="Hudson's_Bay_Company_Official_Logo_2013.svg"
   width="444.51251"
   height="222.256"
   inkscape:version="1.2.2 (732a01da63, 2022-12-09)"
   xmlns:inkscape="http://www.inkscape.org/namespaces/inkscape"
   xmlns:sodipodi="http://sodipodi.sourceforge.net/DTD/sodipodi-0.dtd"
   xmlns="http://www.w3.org/2000/svg"
   xmlns:svg="http://www.w3.org/2000/svg"
   xmlns:rdf="http://www.w3.org/1999/02/22-rdf-syntax-ns#"
   xmlns:cc="http://creativecommons.org/ns#"
   xmlns:dc="http://purl.org/dc/elements/1.1/"><sodipodi:namedview
     id="namedview14"
     pagecolor="#ffffff"
     bordercolor="#666666"
     borderopacity="1.0"
     inkscape:showpageshadow="2"
     inkscape:pageopacity="0.0"
     inkscape:pagecheckerboard="0"
     inkscape:deskcolor="#d1d1d1"
     showgrid="false"
     inkscape:zoom="2.3139218"
     inkscape:cx="281.12445"
     inkscape:cy="49.699173"
     inkscape:window-width="2560"
     inkscape:window-height="1417"
     inkscape:window-x="-8"
     inkscape:window-y="-8"
     inkscape:window-maximized="1"
     inkscape:current-layer="svg2" /><rect
     width="100.00034%"
     height="100.00045%"
     style="fill:#052340;stroke-width:1"
     id="rect2"
     x="0"
     y="0" /><metadata
     id="metadata8"><rdf:RDF><cc:Work
         rdf:about=""><dc:format>image/svg+xml</dc:format><dc:type
           rdf:resource="http://purl.org/dc/dcmitype/StillImage" /></cc:Work></rdf:RDF></metadata><defs
     id="defs6"><clipPath
       id="clipPath18"><path
         d="M 0,0 H 3556 V 2367.84 H 0 Z"
         inkscape:connector-curvature="0"
         id="path20" /></clipPath></defs><g
     transform="matrix(1.0017905,0,0,-1.0017894,44.134633,231.33521)"
     id="g10"><g
       transform="matrix(0.1,0,0,0.1,0,1.6)"
       id="g12"><g
         id="g14"><g
           clip-path="url(#clipPath18)"
           id="g16">
           <path
   d="m 1456.32,1141.26 h 359.46 c 87.97,0 159.47,-70.23 159.47,-158.26 0,-87.969 -71.5,-159.531 -159.47,-159.531 h -359.46 z m 0,405.17 h 349.27 c 61.13,0 111,-49.74 111,-110.94 0,-61.26 -49.87,-110.99 -111,-110.99 H 1456.32 Z M 724.145,1141.26 H 1273.16 V 640.309 h 542.62 c 179.3,0 326.54,138.48 341.19,313.992 87.54,-191.481 280.41,-325.031 504.28,-325.031 134.44,0 257.74,47.992 353.84,127.878 l -117.68,140.18 c -64.22,-53 -146.52,-84.898 -236.16,-84.898 -204.82,0 -371.46,166.648 -371.46,371.52 0,204.82 166.64,371.4 371.46,371.4 89.64,0 171.94,-31.83 236.16,-84.89 l 116.41,141.33 c -95.91,79.21 -218.74,126.78 -352.57,126.78 -305.81,0 -554.62,-248.76 -554.62,-554.62 0,-7.46 0.84,-14.71 1.08,-22.06 -20.14,32.86 -45.64,62.16 -75.36,86.46 42.02,50.88 67.34,116.06 67.34,187.14 0,162.12 -131.91,294.16 -294.1,294.16 H 1273.16 V 1324.5 H 724.145 v 405.15 H 540.98 V 640.309 h 183.165 v 500.951"
   inkscape:connector-curvature="0"
   id="path24"
   style="fill:#ffffff;fill-opacity:1;fill-rule:nonzero;stroke:none" /></g></g></g></g></svg>
