<?xml version="1.0" encoding="UTF-8" standalone="no"?>
<svg xmlns="http://www.w3.org/2000/svg" version="1.0" width="600" height="300">
<rect width="600" height="300" fill="#c8102e"/>
<svg viewBox="0 0 60 30" width="300" height="150">
	<clipPath id="t">
		<path d="M30,15 h30 v15 z v15 h-30 z h-30 v-15 z v-15 h30 z"/>
	</clipPath>
	<path d="M0,0 v30 h60 v-30 z" fill="#012169"/>
	<path d="M0,0 L60,30 M60,0 L0,30" stroke="#fff" stroke-width="6"/>
	<path d="M0,0 L60,30 M60,0 L0,30" clip-path="url(#t)" stroke="#c8102e" stroke-width="4"/>
	<path d="M30,0 v30 M0,15 h60" stroke="#fff" stroke-width="10"/>
	<path d="M30,0 v30 M0,15 h60" stroke="#c8102e" stroke-width="6"/>
</svg>
<path fill="#fff" fill-rule="evenodd"
	d="M385,185 h15 v30 h25 v-30 h25 c 40,0 30,30 20,34 c 20,5 25,41 -15,41 h-30 v-35 h-25 v35 h-15 v-75 m 55,10 h10 c 20,0 20,20 0,20 h-10 z m 0,30 h15 c 20,0 20,25 0,25 h-15 z
		m80,-40 c -15,0 -30,10 -30,37.5 s 15,37 30,37.5 s 30,-10 30,-37.5 s -15,-37.5 -30,-37.5 m0,10 c -10,0 -15,10 -15,27.5 s 5,27.5 15,27.5 s 15,-10 15,-27.5 s -5,-27.5 -15,-27.5"/>
<path fill="#c8102e" d="M565,205l-40,10v15l40,10z"/>
</svg>
